P3
3 3
100
099 099 099 005 005 005 099 099 099 
005 005 005 000 000 000 005 005 005 
099 099 099 005 005 005 099 099 099 
