P3
3 3
6
5 1 3 3 5 1 5 1 3 
2 4 0 5 1 3 0 2 4 
5 1 3 1 3 5 5 1 3 
