P3
4 4
5
2 3 0 2 3 0 2 3 0 0 1 3 
2 3 0 2 3 0 0 1 3 0 1 3 
1 2 4 1 2 4 0 1 3 0 1 3 
1 2 4 1 2 4 1 2 4 0 1 3 
