P3
4 4
100
005 005 005 004 004 004 008 008 008 007 007 007 
006 006 006 003 003 003 006 006 006 005 005 005 
006 006 006 003 003 003 006 006 006 005 005 005 
005 005 005 004 004 004 008 008 008 007 007 007 
